# xmcd
#
# Track frame offsets:
#       150
#       17521
#       34466
#       50073
#       66318
#       79422
#       97407
#       113792
#       131283
#       146675
#       166626
#
# Disc length: 2482 seconds
#
# Revision: 0
# Processed by: cddbd v1.4PL0 Copyright (c) Steve Scherf et al.
# Submitted via: CD-DA_X-Tractor v0.21
#
DISCID=9b09b00b
DTITLE=Amie Comeaux - A Very Special Angel
DYEAR=1900
DGENRE=
TTITLE0=When You Smile At Me
TTITLE1=Twelve Steps Down
TTITLE2=When Spirits Walk
TTITLE3=Anywhere With You
TTITLE4=Paper Mill Road
TTITLE5=The Other Woman
TTITLE6=This Dream
TTITLE7=House Of Fallen Angels
TTITLE8=Another Bedtime Story
TTITLE9=A Single Crimson Rose
TTITLE10=A Very Special Angel
EXTD=
EXTT0=
EXTT1=
EXTT2=
EXTT3=
EXTT4=
EXTT5=
EXTT6=
EXTT7=
EXTT8=
EXTT9=
EXTT10=
PLAYORDER=
